<mxfile host="65bd71144e">
    <diagram id="_sgcQJJRoCDwZnuj_THw" name="Page-1">
        <mxGraphModel dx="1458" dy="1840" grid="1" gridSize="10" guides="1" tooltips="1" connect="1" arrows="1" fold="1" page="1" pageScale="1" pageWidth="850" pageHeight="1100" math="0" shadow="0">
            <root>
                <mxCell id="0"/>
                <mxCell id="1" parent="0"/>
                <mxCell id="13" value="" style="group;fontStyle=1" parent="1" vertex="1" connectable="0">
                    <mxGeometry x="40" y="40" width="190" height="120" as="geometry"/>
                </mxCell>
                <mxCell id="3" value="&lt;b&gt;User&lt;/b&gt;" style="whiteSpace=wrap;html=1;fillColor=#008a00;strokeColor=default;fontColor=#ffffff;" parent="13" vertex="1">
                    <mxGeometry width="190" height="30" as="geometry"/>
                </mxCell>
                <mxCell id="4" value="id" style="whiteSpace=wrap;html=1;strokeColor=default;" parent="13" vertex="1">
                    <mxGeometry x="30" y="30" width="90" height="30" as="geometry"/>
                </mxCell>
                <mxCell id="5" value="username&lt;br&gt;" style="whiteSpace=wrap;html=1;strokeColor=default;" parent="13" vertex="1">
                    <mxGeometry x="30" y="60" width="90" height="30" as="geometry"/>
                </mxCell>
                <mxCell id="6" value="role" style="whiteSpace=wrap;html=1;strokeColor=default;" parent="13" vertex="1">
                    <mxGeometry x="30" y="90" width="90" height="30" as="geometry"/>
                </mxCell>
                <mxCell id="7" value="PK" style="whiteSpace=wrap;html=1;strokeColor=default;" parent="13" vertex="1">
                    <mxGeometry y="30" width="30" height="30" as="geometry"/>
                </mxCell>
                <mxCell id="8" value="" style="whiteSpace=wrap;html=1;strokeColor=default;" parent="13" vertex="1">
                    <mxGeometry y="60" width="30" height="30" as="geometry"/>
                </mxCell>
                <mxCell id="9" value="" style="whiteSpace=wrap;html=1;strokeColor=default;" parent="13" vertex="1">
                    <mxGeometry y="90" width="30" height="30" as="geometry"/>
                </mxCell>
                <mxCell id="10" value="string" style="whiteSpace=wrap;html=1;strokeColor=default;" parent="13" vertex="1">
                    <mxGeometry x="120" y="30" width="70" height="30" as="geometry"/>
                </mxCell>
                <mxCell id="11" value="string" style="whiteSpace=wrap;html=1;strokeColor=default;" parent="13" vertex="1">
                    <mxGeometry x="120" y="60" width="70" height="30" as="geometry"/>
                </mxCell>
                <mxCell id="12" value="enum" style="whiteSpace=wrap;html=1;strokeColor=default;" parent="13" vertex="1">
                    <mxGeometry x="120" y="90" width="70" height="30" as="geometry"/>
                </mxCell>
                <mxCell id="14" value="" style="group" parent="1" vertex="1" connectable="0">
                    <mxGeometry x="330" y="-90" width="190" height="120" as="geometry"/>
                </mxCell>
                <mxCell id="15" value="&lt;b&gt;Book&lt;/b&gt;" style="whiteSpace=wrap;html=1;fillColor=#008a00;strokeColor=default;fontColor=#ffffff;" parent="14" vertex="1">
                    <mxGeometry width="190" height="30" as="geometry"/>
                </mxCell>
                <mxCell id="16" value="id" style="whiteSpace=wrap;html=1;strokeColor=default;" parent="14" vertex="1">
                    <mxGeometry x="30" y="30" width="90" height="30" as="geometry"/>
                </mxCell>
                <mxCell id="17" value="name" style="whiteSpace=wrap;html=1;strokeColor=default;" parent="14" vertex="1">
                    <mxGeometry x="30" y="60" width="90" height="30" as="geometry"/>
                </mxCell>
                <mxCell id="18" value="description" style="whiteSpace=wrap;html=1;strokeColor=default;" parent="14" vertex="1">
                    <mxGeometry x="30" y="90" width="90" height="30" as="geometry"/>
                </mxCell>
                <mxCell id="19" value="PK" style="whiteSpace=wrap;html=1;strokeColor=default;" parent="14" vertex="1">
                    <mxGeometry y="30" width="30" height="30" as="geometry"/>
                </mxCell>
                <mxCell id="20" value="" style="whiteSpace=wrap;html=1;strokeColor=default;" parent="14" vertex="1">
                    <mxGeometry y="60" width="30" height="30" as="geometry"/>
                </mxCell>
                <mxCell id="21" value="" style="whiteSpace=wrap;html=1;strokeColor=default;" parent="14" vertex="1">
                    <mxGeometry y="90" width="30" height="30" as="geometry"/>
                </mxCell>
                <mxCell id="22" value="string" style="whiteSpace=wrap;html=1;strokeColor=default;" parent="14" vertex="1">
                    <mxGeometry x="120" y="30" width="70" height="30" as="geometry"/>
                </mxCell>
                <mxCell id="23" value="string" style="whiteSpace=wrap;html=1;strokeColor=default;" parent="14" vertex="1">
                    <mxGeometry x="120" y="60" width="70" height="30" as="geometry"/>
                </mxCell>
                <mxCell id="24" value="string" style="whiteSpace=wrap;html=1;strokeColor=default;" parent="14" vertex="1">
                    <mxGeometry x="120" y="90" width="70" height="30" as="geometry"/>
                </mxCell>
                <mxCell id="25" value="" style="group" parent="1" vertex="1" connectable="0">
                    <mxGeometry x="-100" y="250" width="190" height="120" as="geometry"/>
                </mxCell>
                <mxCell id="26" value="&lt;b&gt;ActiveBook&lt;/b&gt;" style="whiteSpace=wrap;html=1;fillColor=#008a00;strokeColor=default;fontColor=#ffffff;" parent="25" vertex="1">
                    <mxGeometry width="190" height="30" as="geometry"/>
                </mxCell>
                <mxCell id="27" value="id" style="whiteSpace=wrap;html=1;strokeColor=default;" parent="25" vertex="1">
                    <mxGeometry x="30" y="30" width="90" height="30" as="geometry"/>
                </mxCell>
                <mxCell id="28" value="book_id" style="whiteSpace=wrap;html=1;strokeColor=default;" parent="25" vertex="1">
                    <mxGeometry x="30" y="60" width="90" height="30" as="geometry"/>
                </mxCell>
                <mxCell id="29" value="electedOn" style="whiteSpace=wrap;html=1;strokeColor=default;" parent="25" vertex="1">
                    <mxGeometry x="30" y="90" width="90" height="30" as="geometry"/>
                </mxCell>
                <mxCell id="30" value="PK" style="whiteSpace=wrap;html=1;strokeColor=default;" parent="25" vertex="1">
                    <mxGeometry y="30" width="30" height="30" as="geometry"/>
                </mxCell>
                <mxCell id="31" value="" style="whiteSpace=wrap;html=1;strokeColor=default;" parent="25" vertex="1">
                    <mxGeometry y="60" width="30" height="30" as="geometry"/>
                </mxCell>
                <mxCell id="32" value="" style="whiteSpace=wrap;html=1;strokeColor=default;" parent="25" vertex="1">
                    <mxGeometry y="90" width="30" height="30" as="geometry"/>
                </mxCell>
                <mxCell id="33" value="string" style="whiteSpace=wrap;html=1;strokeColor=default;" parent="25" vertex="1">
                    <mxGeometry x="120" y="30" width="70" height="30" as="geometry"/>
                </mxCell>
                <mxCell id="34" value="" style="whiteSpace=wrap;html=1;strokeColor=default;" parent="25" vertex="1">
                    <mxGeometry x="120" y="60" width="70" height="30" as="geometry"/>
                </mxCell>
                <mxCell id="35" value="" style="whiteSpace=wrap;html=1;strokeColor=default;" parent="25" vertex="1">
                    <mxGeometry x="120" y="90" width="70" height="30" as="geometry"/>
                </mxCell>
                <mxCell id="48" value="createdBy" style="whiteSpace=wrap;html=1;strokeColor=default;" parent="1" vertex="1">
                    <mxGeometry x="360" y="30" width="90" height="30" as="geometry"/>
                </mxCell>
                <mxCell id="68" style="edgeStyle=orthogonalEdgeStyle;html=1;entryX=1;entryY=0.5;entryDx=0;entryDy=0;" parent="1" source="49" target="10" edge="1">
                    <mxGeometry relative="1" as="geometry"/>
                </mxCell>
                <mxCell id="49" value="FK" style="whiteSpace=wrap;html=1;strokeColor=default;" parent="1" vertex="1">
                    <mxGeometry x="330" y="30" width="30" height="30" as="geometry"/>
                </mxCell>
                <mxCell id="50" value="string" style="whiteSpace=wrap;html=1;strokeColor=default;" parent="1" vertex="1">
                    <mxGeometry x="450" y="30" width="70" height="30" as="geometry"/>
                </mxCell>
                <mxCell id="55" value="" style="group" parent="1" vertex="1" connectable="0">
                    <mxGeometry x="330" y="80" width="190" height="120" as="geometry"/>
                </mxCell>
                <mxCell id="56" value="&lt;b&gt;Votes&lt;/b&gt;" style="whiteSpace=wrap;html=1;fillColor=#008a00;strokeColor=default;fontColor=#ffffff;" parent="55" vertex="1">
                    <mxGeometry width="190" height="30" as="geometry"/>
                </mxCell>
                <mxCell id="57" value="id" style="whiteSpace=wrap;html=1;strokeColor=default;" parent="55" vertex="1">
                    <mxGeometry x="30" y="30" width="90" height="30" as="geometry"/>
                </mxCell>
                <mxCell id="58" value="user_id" style="whiteSpace=wrap;html=1;strokeColor=default;" parent="55" vertex="1">
                    <mxGeometry x="30" y="60" width="90" height="30" as="geometry"/>
                </mxCell>
                <mxCell id="59" value="book_id" style="whiteSpace=wrap;html=1;strokeColor=default;" parent="55" vertex="1">
                    <mxGeometry x="30" y="90" width="90" height="30" as="geometry"/>
                </mxCell>
                <mxCell id="60" value="PK" style="whiteSpace=wrap;html=1;strokeColor=default;" parent="55" vertex="1">
                    <mxGeometry y="30" width="30" height="30" as="geometry"/>
                </mxCell>
                <mxCell id="61" value="FK" style="whiteSpace=wrap;html=1;strokeColor=default;" parent="55" vertex="1">
                    <mxGeometry y="60" width="30" height="30" as="geometry"/>
                </mxCell>
                <mxCell id="62" value="FK" style="whiteSpace=wrap;html=1;strokeColor=default;" parent="55" vertex="1">
                    <mxGeometry y="90" width="30" height="30" as="geometry"/>
                </mxCell>
                <mxCell id="63" value="string" style="whiteSpace=wrap;html=1;strokeColor=default;" parent="55" vertex="1">
                    <mxGeometry x="120" y="30" width="70" height="30" as="geometry"/>
                </mxCell>
                <mxCell id="64" value="string" style="whiteSpace=wrap;html=1;strokeColor=default;" parent="55" vertex="1">
                    <mxGeometry x="120" y="60" width="70" height="30" as="geometry"/>
                </mxCell>
                <mxCell id="65" value="string" style="whiteSpace=wrap;html=1;strokeColor=default;" parent="55" vertex="1">
                    <mxGeometry x="120" y="90" width="70" height="30" as="geometry"/>
                </mxCell>
                <mxCell id="67" style="edgeStyle=orthogonalEdgeStyle;html=1;entryX=1;entryY=0.5;entryDx=0;entryDy=0;exitX=0;exitY=0.5;exitDx=0;exitDy=0;" parent="1" source="61" target="10" edge="1">
                    <mxGeometry relative="1" as="geometry"/>
                </mxCell>
                <mxCell id="69" style="edgeStyle=orthogonalEdgeStyle;html=1;entryX=1;entryY=0.5;entryDx=0;entryDy=0;" parent="1" source="65" target="22" edge="1">
                    <mxGeometry relative="1" as="geometry">
                        <Array as="points">
                            <mxPoint x="580" y="205"/>
                            <mxPoint x="580" y="-45"/>
                        </Array>
                    </mxGeometry>
                </mxCell>
                <mxCell id="70" value="" style="group" parent="1" vertex="1" connectable="0">
                    <mxGeometry x="530" y="300" width="190" height="120" as="geometry"/>
                </mxCell>
                <mxCell id="71" value="&lt;b&gt;Election&lt;/b&gt;" style="whiteSpace=wrap;html=1;fillColor=#008a00;strokeColor=default;fontColor=#ffffff;" parent="70" vertex="1">
                    <mxGeometry width="190" height="30" as="geometry"/>
                </mxCell>
                <mxCell id="72" value="" style="whiteSpace=wrap;html=1;strokeColor=default;" parent="70" vertex="1">
                    <mxGeometry x="30" y="30" width="90" height="30" as="geometry"/>
                </mxCell>
                <mxCell id="73" value="" style="whiteSpace=wrap;html=1;strokeColor=default;" parent="70" vertex="1">
                    <mxGeometry x="30" y="60" width="90" height="30" as="geometry"/>
                </mxCell>
                <mxCell id="74" value="" style="whiteSpace=wrap;html=1;strokeColor=default;" parent="70" vertex="1">
                    <mxGeometry x="30" y="90" width="90" height="30" as="geometry"/>
                </mxCell>
                <mxCell id="75" value="PK" style="whiteSpace=wrap;html=1;strokeColor=default;" parent="70" vertex="1">
                    <mxGeometry y="30" width="30" height="30" as="geometry"/>
                </mxCell>
                <mxCell id="76" value="" style="whiteSpace=wrap;html=1;strokeColor=default;" parent="70" vertex="1">
                    <mxGeometry y="60" width="30" height="30" as="geometry"/>
                </mxCell>
                <mxCell id="77" value="" style="whiteSpace=wrap;html=1;strokeColor=default;" parent="70" vertex="1">
                    <mxGeometry y="90" width="30" height="30" as="geometry"/>
                </mxCell>
                <mxCell id="78" value="" style="whiteSpace=wrap;html=1;strokeColor=default;" parent="70" vertex="1">
                    <mxGeometry x="120" y="30" width="70" height="30" as="geometry"/>
                </mxCell>
                <mxCell id="79" value="" style="whiteSpace=wrap;html=1;strokeColor=default;" parent="70" vertex="1">
                    <mxGeometry x="120" y="60" width="70" height="30" as="geometry"/>
                </mxCell>
                <mxCell id="80" value="" style="whiteSpace=wrap;html=1;strokeColor=default;" parent="70" vertex="1">
                    <mxGeometry x="120" y="90" width="70" height="30" as="geometry"/>
                </mxCell>
                <mxCell id="86" value="election_id" style="whiteSpace=wrap;html=1;strokeColor=default;" vertex="1" parent="1">
                    <mxGeometry x="360" y="200" width="90" height="30" as="geometry"/>
                </mxCell>
                <mxCell id="87" value="FK" style="whiteSpace=wrap;html=1;strokeColor=default;" vertex="1" parent="1">
                    <mxGeometry x="330" y="200" width="30" height="30" as="geometry"/>
                </mxCell>
                <mxCell id="92" style="edgeStyle=orthogonalEdgeStyle;html=1;entryX=0;entryY=0.5;entryDx=0;entryDy=0;" edge="1" parent="1" source="88" target="75">
                    <mxGeometry relative="1" as="geometry"/>
                </mxCell>
                <mxCell id="88" value="string" style="whiteSpace=wrap;html=1;strokeColor=default;" vertex="1" parent="1">
                    <mxGeometry x="450" y="200" width="70" height="30" as="geometry"/>
                </mxCell>
                <mxCell id="90" value="" style="group" vertex="1" connectable="0" parent="1">
                    <mxGeometry x="260" y="340" width="190" height="150" as="geometry"/>
                </mxCell>
                <mxCell id="36" value="" style="group" parent="90" vertex="1" connectable="0">
                    <mxGeometry width="190" height="120" as="geometry"/>
                </mxCell>
                <mxCell id="37" value="&lt;b&gt;ProgressBook&lt;/b&gt;" style="whiteSpace=wrap;html=1;fillColor=#008a00;strokeColor=default;fontColor=#ffffff;" parent="36" vertex="1">
                    <mxGeometry width="190" height="30" as="geometry"/>
                </mxCell>
                <mxCell id="38" value="id" style="whiteSpace=wrap;html=1;strokeColor=default;" parent="36" vertex="1">
                    <mxGeometry x="30" y="30" width="90" height="30" as="geometry"/>
                </mxCell>
                <mxCell id="41" value="PK" style="whiteSpace=wrap;html=1;strokeColor=default;" parent="36" vertex="1">
                    <mxGeometry y="30" width="30" height="30" as="geometry"/>
                </mxCell>
                <mxCell id="44" value="string" style="whiteSpace=wrap;html=1;strokeColor=default;" parent="36" vertex="1">
                    <mxGeometry x="120" y="30" width="70" height="30" as="geometry"/>
                </mxCell>
                <mxCell id="89" value="" style="group" vertex="1" connectable="0" parent="36">
                    <mxGeometry y="60" width="190" height="60" as="geometry"/>
                </mxCell>
                <mxCell id="39" value="book_id" style="whiteSpace=wrap;html=1;strokeColor=default;" parent="89" vertex="1">
                    <mxGeometry x="30" width="90" height="30" as="geometry"/>
                </mxCell>
                <mxCell id="40" value="user_id" style="whiteSpace=wrap;html=1;strokeColor=default;" parent="89" vertex="1">
                    <mxGeometry x="30" y="30" width="90" height="30" as="geometry"/>
                </mxCell>
                <mxCell id="42" value="FK" style="whiteSpace=wrap;html=1;strokeColor=default;" parent="89" vertex="1">
                    <mxGeometry width="30" height="30" as="geometry"/>
                </mxCell>
                <mxCell id="43" value="FK" style="whiteSpace=wrap;html=1;strokeColor=default;" parent="89" vertex="1">
                    <mxGeometry y="30" width="30" height="30" as="geometry"/>
                </mxCell>
                <mxCell id="45" value="" style="whiteSpace=wrap;html=1;strokeColor=default;" parent="89" vertex="1">
                    <mxGeometry x="120" width="70" height="30" as="geometry"/>
                </mxCell>
                <mxCell id="46" value="" style="whiteSpace=wrap;html=1;strokeColor=default;" parent="89" vertex="1">
                    <mxGeometry x="120" y="30" width="70" height="30" as="geometry"/>
                </mxCell>
                <mxCell id="81" value="chapter" style="whiteSpace=wrap;html=1;strokeColor=default;" parent="90" vertex="1">
                    <mxGeometry x="30" y="120" width="90" height="30" as="geometry"/>
                </mxCell>
                <mxCell id="82" value="int" style="whiteSpace=wrap;html=1;strokeColor=default;" parent="90" vertex="1">
                    <mxGeometry x="120" y="120" width="70" height="30" as="geometry"/>
                </mxCell>
                <mxCell id="83" value="" style="whiteSpace=wrap;html=1;strokeColor=default;" parent="90" vertex="1">
                    <mxGeometry y="120" width="30" height="30" as="geometry"/>
                </mxCell>
                <mxCell id="93" value="" style="group" vertex="1" connectable="0" parent="1">
                    <mxGeometry x="650" y="90" width="190" height="120" as="geometry"/>
                </mxCell>
                <mxCell id="94" value="&lt;b&gt;BooksElection&lt;/b&gt;" style="whiteSpace=wrap;html=1;fillColor=#008a00;strokeColor=default;fontColor=#ffffff;" vertex="1" parent="93">
                    <mxGeometry width="190" height="30" as="geometry"/>
                </mxCell>
                <mxCell id="95" value="" style="whiteSpace=wrap;html=1;strokeColor=default;" vertex="1" parent="93">
                    <mxGeometry x="30" y="30" width="90" height="30" as="geometry"/>
                </mxCell>
                <mxCell id="96" value="" style="whiteSpace=wrap;html=1;strokeColor=default;" vertex="1" parent="93">
                    <mxGeometry x="30" y="60" width="90" height="30" as="geometry"/>
                </mxCell>
                <mxCell id="97" value="" style="whiteSpace=wrap;html=1;strokeColor=default;" vertex="1" parent="93">
                    <mxGeometry x="30" y="90" width="90" height="30" as="geometry"/>
                </mxCell>
                <mxCell id="98" value="PK" style="whiteSpace=wrap;html=1;strokeColor=default;" vertex="1" parent="93">
                    <mxGeometry y="30" width="30" height="30" as="geometry"/>
                </mxCell>
                <mxCell id="99" value="" style="whiteSpace=wrap;html=1;strokeColor=default;" vertex="1" parent="93">
                    <mxGeometry y="60" width="30" height="30" as="geometry"/>
                </mxCell>
                <mxCell id="100" value="" style="whiteSpace=wrap;html=1;strokeColor=default;" vertex="1" parent="93">
                    <mxGeometry y="90" width="30" height="30" as="geometry"/>
                </mxCell>
                <mxCell id="101" value="" style="whiteSpace=wrap;html=1;strokeColor=default;" vertex="1" parent="93">
                    <mxGeometry x="120" y="30" width="70" height="30" as="geometry"/>
                </mxCell>
                <mxCell id="102" value="" style="whiteSpace=wrap;html=1;strokeColor=default;" vertex="1" parent="93">
                    <mxGeometry x="120" y="60" width="70" height="30" as="geometry"/>
                </mxCell>
                <mxCell id="103" value="" style="whiteSpace=wrap;html=1;strokeColor=default;" vertex="1" parent="93">
                    <mxGeometry x="120" y="90" width="70" height="30" as="geometry"/>
                </mxCell>
            </root>
        </mxGraphModel>
    </diagram>
</mxfile>